<?xml version="1.0" encoding="UTF-8"?>
<svg id="Capa_1" data-name="Capa 1" xmlns="http://www.w3.org/2000/svg" xmlns:xlink="http://www.w3.org/1999/xlink" viewBox="0 0 612 386.3">
  <defs>
    <style>
      .cls-1 {
        clip-path: url(#clippath);
      }

      .cls-2 {
        fill: none;
      }

      .cls-2, .cls-3, .cls-4, .cls-5, .cls-6, .cls-7, .cls-8, .cls-9, .cls-10, .cls-11, .cls-12, .cls-13, .cls-14, .cls-15, .cls-16, .cls-17, .cls-18, .cls-19, .cls-20, .cls-21 {
        stroke-width: 0px;
      }

      .cls-3 {
        fill: #282d73;
      }

      .cls-4 {
        fill: url(#linear-gradient);
      }

      .cls-5 {
        fill: url(#radial-gradient);
      }

      .cls-6 {
        fill: #e62a36;
      }

      .cls-7 {
        fill: #d3d5d7;
      }

      .cls-22 {
        clip-path: url(#clippath-1);
      }

      .cls-23 {
        clip-path: url(#clippath-4);
      }

      .cls-24 {
        clip-path: url(#clippath-3);
      }

      .cls-25 {
        clip-path: url(#clippath-2);
      }

      .cls-26 {
        clip-path: url(#clippath-7);
      }

      .cls-27 {
        clip-path: url(#clippath-8);
      }

      .cls-28 {
        clip-path: url(#clippath-6);
      }

      .cls-29 {
        clip-path: url(#clippath-5);
      }

      .cls-30 {
        clip-path: url(#clippath-9);
      }

      .cls-8 {
        fill: #a01e22;
      }

      .cls-31 {
        clip-path: url(#clippath-12);
      }

      .cls-32 {
        clip-path: url(#clippath-10);
      }

      .cls-33 {
        clip-path: url(#clippath-11);
      }

      .cls-9 {
        fill: url(#radial-gradient-2);
      }

      .cls-10 {
        fill: url(#radial-gradient-3);
      }

      .cls-11 {
        fill: url(#radial-gradient-4);
      }

      .cls-12 {
        fill: url(#radial-gradient-6);
      }

      .cls-13 {
        fill: url(#radial-gradient-9);
      }

      .cls-14 {
        fill: url(#radial-gradient-8);
      }

      .cls-15 {
        fill: url(#radial-gradient-5);
      }

      .cls-16 {
        fill: url(#radial-gradient-7);
      }

      .cls-17 {
        fill: url(#linear-gradient-2);
      }

      .cls-18 {
        fill: #4a8b2c;
      }

      .cls-19 {
        fill: #009a3e;
      }

      .cls-20 {
        fill: #fff;
      }

      .cls-21 {
        fill: #dceabe;
      }
    </style>
    <clipPath id="clippath">
      <path class="cls-2" d="M200.55,73.5l.69,59.09,8.92-1.59-.91-58.59c-.37-.02-.75-.04-1.12-.07l-7.59,1.16Z"/>
    </clipPath>
    <radialGradient id="radial-gradient" cx="-1437.38" cy="580.26" fx="-1437.38" fy="580.26" r="3.53" gradientTransform="translate(31767.55 -12681.04) scale(21.95)" gradientUnits="userSpaceOnUse">
      <stop offset="0" stop-color="#243c74"/>
      <stop offset=".53" stop-color="#0e1230"/>
      <stop offset="1" stop-color="#0e1230"/>
    </radialGradient>
    <clipPath id="clippath-1">
      <path class="cls-2" d="M123.08,121.83c28.86-18.46,51.03-9.58,51.03-9.58l8.94-.99c-8.3-3.22-15.88-4.46-22.66-4.46-23.52,0-37.31,15.03-37.31,15.03"/>
    </clipPath>
    <linearGradient id="linear-gradient" x1="-1426.63" y1="574.43" x2="-1423.1" y2="574.43" gradientTransform="translate(24389.3 9883.29) scale(17.01 -17.01)" gradientUnits="userSpaceOnUse">
      <stop offset="0" stop-color="#07a952"/>
      <stop offset=".82" stop-color="#0e4924"/>
      <stop offset="1" stop-color="#0e4924"/>
    </linearGradient>
    <clipPath id="clippath-2">
      <path class="cls-2" d="M108.69,55.77c-2.93.71-5.87,1.5-8.8,2.34-29.69,8.38-57.08,29.28-72.25,60.49-9.19,18.96-13.38,40.27-12.73,62.05,3.78-2.48,7.69-4.99,11.69-7.46-.7-21.86,3.54-43,12.88-61.57,14.98-29.83,41.92-49.22,70.99-56.27-.6.14-1.19.28-1.78.43M110.47,55.34c.13-.03.26-.07.39-.09-.13.03-.26.06-.39.09"/>
    </clipPath>
    <radialGradient id="radial-gradient-2" cx="-1470.9" cy="581.7" fx="-1470.9" fy="581.7" r="3.52" gradientTransform="translate(89643.55 -35161.08) scale(60.9)" gradientUnits="userSpaceOnUse">
      <stop offset="0" stop-color="#d4e8c6"/>
      <stop offset="0" stop-color="#d4e8c6"/>
      <stop offset=".02" stop-color="#d0e6c0"/>
      <stop offset=".04" stop-color="#c4e1af"/>
      <stop offset=".07" stop-color="#b2d894"/>
      <stop offset=".09" stop-color="#98cd6f"/>
      <stop offset=".12" stop-color="#7ac043"/>
      <stop offset=".26" stop-color="#40a248"/>
      <stop offset=".5" stop-color="#104e27"/>
      <stop offset=".51" stop-color="#0f4c26"/>
      <stop offset=".78" stop-color="#231f20"/>
      <stop offset="1" stop-color="#231f20"/>
    </radialGradient>
    <clipPath id="clippath-3">
      <path class="cls-2" d="M237.05,306.74c.19-.14.38-.29.57-.44-.19.15-.38.29-.57.44M19.37,212.88c13.22,53.5,54.06,100.15,106,115.92,37.84,11.43,75.12,4,102.47-15.29,3.15-2.23,6.22-4.49,9.21-6.77-12.42,9.4-26.94,16.09-42.55,19.32-17.12,3.51-36.02,2.96-55.42-2.65-52.41-15.28-94.06-62.7-107.83-117.52-4.09,2.35-8.04,4.69-11.88,6.99"/>
    </clipPath>
    <radialGradient id="radial-gradient-3" cx="-1470.91" cy="581.69" fx="-1470.91" fy="581.69" r="3.53" gradientTransform="translate(89725.44 -35192.96) scale(60.96)" gradientUnits="userSpaceOnUse">
      <stop offset="0" stop-color="#ea2227"/>
      <stop offset=".31" stop-color="#ea2227"/>
      <stop offset=".66" stop-color="#5a0d0d"/>
      <stop offset="1" stop-color="#9c1d20"/>
    </radialGradient>
    <clipPath id="clippath-4">
      <path class="cls-2" d="M106.02,56.52c-16.7,4.76-32.53,13.72-45.58,26.46-7.52,7.69-14.1,16.66-19.24,26.91-9.32,18.58-13.57,39.72-12.86,61.58,15.62-4.19,32.53-8.07,50.48-11.56-.33-12.85,1.63-25.31,6.16-36.73,4.17-10.43,10.25-19.23,17.63-26.23,7.7-7.82,16.95-13.6,27.04-17.12,16.75-5.81,36.8-5.81,56.56,1.05.86-7.39,1.4-13.79,1.68-19.27-16.37-6.47-33.22-9.52-49.32-9.52-11.36,0-22.35,1.52-32.56,4.43"/>
    </clipPath>
    <radialGradient id="radial-gradient-4" cx="-1472.8" cy="581.35" fx="-1472.8" fy="581.35" r="3.53" gradientTransform="translate(101915.61 -39936.75) scale(69.16)" gradientUnits="userSpaceOnUse">
      <stop offset="0" stop-color="#fff"/>
      <stop offset="0" stop-color="#fff"/>
      <stop offset=".19" stop-color="#bfdc98"/>
      <stop offset=".25" stop-color="#bad991"/>
      <stop offset=".34" stop-color="#acd480"/>
      <stop offset=".44" stop-color="#96ca63"/>
      <stop offset=".48" stop-color="#8bc655"/>
      <stop offset=".71" stop-color="#6fbe50"/>
      <stop offset="1" stop-color="#0a6534"/>
    </radialGradient>
    <clipPath id="clippath-5">
      <path class="cls-2" d="M106.02,57.56c-16.7,4.76-32.53,13.72-45.58,26.46-7.52,7.69-14.1,16.66-19.24,26.91-9.32,18.58-13.57,39.72-12.86,61.58,14.58-3.9,58.15-11.69,78.5-15.55,1.09-13.16,6.19-27.66,20.49-38.76,0,0,24.48-19.52,55.73-6.93,1.45-13.38,4.6-43.93,4.84-48.62-16.37-6.47-33.22-9.52-49.32-9.52-11.36,0-22.35,1.52-32.56,4.43"/>
    </clipPath>
    <clipPath id="clippath-6">
      <path class="cls-2" d="M106.02,56.52c-16.7,4.76-32.53,13.72-45.58,26.46-7.52,7.69-14.1,16.66-19.24,26.91-9.32,18.58-13.57,39.72-12.86,61.58,14.58-3.9,58.14-11.69,78.5-15.55,1.09-13.15,6.19-27.66,20.49-38.76,0,0,24.48-19.51,55.73-6.92,1.45-13.38,4.6-43.93,4.84-48.63-16.37-6.47-33.22-9.52-49.32-9.52-11.36,0-22.35,1.52-32.56,4.43"/>
    </clipPath>
    <radialGradient id="radial-gradient-5" cx="-1473.57" cy="581.31" fx="-1473.57" fy="581.31" r="3.52" gradientTransform="translate(107211.68 -41994.59) scale(72.72)" gradientUnits="userSpaceOnUse">
      <stop offset="0" stop-color="#7fc793"/>
      <stop offset="0" stop-color="#7fc793"/>
      <stop offset=".71" stop-color="#07a952"/>
      <stop offset="1" stop-color="#0b4b25"/>
    </radialGradient>
    <clipPath id="clippath-7">
      <polygon class="cls-2" points="26.6 173.19 14.84 180.64 102.61 162.73 106.58 157.16 26.6 173.19"/>
    </clipPath>
    <linearGradient id="linear-gradient-2" x1="-1450.51" y1="574.35" x2="-1446.98" y2="574.35" gradientTransform="translate(37753.23 15111.94) scale(26.02 -26.02)" gradientUnits="userSpaceOnUse">
      <stop offset="0" stop-color="#07a952"/>
      <stop offset=".55" stop-color="#0b4b25"/>
      <stop offset="1" stop-color="#0b4b25"/>
    </linearGradient>
    <clipPath id="clippath-8">
      <path class="cls-2" d="M30.95,204.6c14.12,54.26,57.87,99.99,109.85,115.14,23.31,6.77,45.97,6.2,65.71,0,16.24-5.1,31.97-12.12,44.16-24.14.76-.8,1.53-1.61,2.27-2.42-3.34-8.02-22.31-45.42-32.41-64.61-8.36,9.51-24.02,21.03-48.6,15.9,0,0-37.45-3.07-59.88-55.36-22.41,3.92-66.76,12.63-81.1,15.5"/>
    </clipPath>
    <clipPath id="clippath-9">
      <path class="cls-2" d="M33.31,205.48c14.11,54.26,55.51,101.05,107.49,116.2,23.31,6.77,45.97,6.19,65.71,0,16.24-5.1,31.06-14.17,43.25-26.19.76-.8,1.53-1.61,2.27-2.42-3.33-8.02-21.4-43.37-31.5-62.57-8.36,9.51-24.02,21.05-48.6,15.9,0,0-37.45-3.08-59.88-55.36-22.41,3.91-64.41,11.57-78.73,14.44"/>
    </clipPath>
    <radialGradient id="radial-gradient-6" cx="-1473.07" cy="580.81" fx="-1473.07" fy="580.81" r="3.53" gradientTransform="translate(103662.44 -47839.69) scale(70.33 82.81)" gradientUnits="userSpaceOnUse">
      <stop offset="0" stop-color="#ea2227"/>
      <stop offset=".44" stop-color="#ea2227"/>
      <stop offset="1" stop-color="#321110"/>
    </radialGradient>
    <clipPath id="clippath-10">
      <path class="cls-2" d="M211.84,129.97c2.84,3.05,6,7.66,8.85,11.42,0,0,27.14,36.64,18.76,73.36,11.56,22.15,25.12,49.41,27.78,57.38,7.58-13.2,13.15-28.53,15.76-45.53,4.63-30.18-.94-62.35-14.26-89.5-12.74-25.89-33.47-49-58.29-64.19.48,5.36,1.24,43.59,1.4,57.07"/>
    </clipPath>
    <radialGradient id="radial-gradient-7" cx="-1479.61" cy="581.28" fx="-1479.61" fy="581.28" r="3.52" gradientTransform="translate(173702.73 -44320.52) scale(117.46 76.74)" gradientUnits="userSpaceOnUse">
      <stop offset="0" stop-color="#d1daee"/>
      <stop offset="0" stop-color="#d1daee"/>
      <stop offset=".23" stop-color="#243c74"/>
      <stop offset="1" stop-color="#243c74"/>
    </radialGradient>
    <clipPath id="clippath-11">
      <path class="cls-2" d="M230.52,220.28l29.18,57.8,6.38-3.9s-24.26-51.56-28.81-58.6l-6.74,4.69Z"/>
    </clipPath>
    <radialGradient id="radial-gradient-8" cx="-1446.78" cy="522.01" fx="-1446.78" fy="522.01" r="3.53" gradientTransform="translate(23825.11 8758.15) scale(16.3 -16.3)" xlink:href="#radial-gradient"/>
    <clipPath id="clippath-12">
      <path class="cls-2" d="M201.23,132.59c37.76,36.19,29.29,87.69,29.29,87.69l6.74-4.69c9.92-43.55-27.13-84.59-27.13-84.59l-8.89,1.59Z"/>
    </clipPath>
    <radialGradient id="radial-gradient-9" cx="-1456.59" cy="539.46" fx="-1456.59" fy="539.46" r="3.52" gradientTransform="translate(32697.78 12204.41) scale(22.3 -22.3)" gradientUnits="userSpaceOnUse">
      <stop offset="0" stop-color="#0e1230"/>
      <stop offset=".21" stop-color="#0e1230"/>
      <stop offset=".51" stop-color="#243c74"/>
      <stop offset="1" stop-color="#243c74"/>
    </radialGradient>
  </defs>
  <g>
    <g class="cls-1">
      <rect class="cls-5" x="200.55" y="72.34" width="9.61" height="60.25"/>
    </g>
    <g class="cls-22">
      <rect class="cls-4" x="123.08" y="103.37" width="59.97" height="18.46"/>
    </g>
    <g>
      <path class="cls-7" d="M268.73,137.09c-12.74-25.88-33.47-48.99-58.29-64.19-.69-.4-1.34-.83-2.02-1.23.65,6.04,1.55,45.81,1.7,60.05,2.75,2.94,5.82,7.45,8.58,11.08,0,0,25.31,34.35,18.81,68.22,11.1,21.36,26.9,52.66,29.72,61.09,7.58-13.19,13.14-28.53,15.76-45.52,4.63-30.18-.93-62.36-14.26-89.51"/>
      <path class="cls-7" d="M236.74,214.58c11.45,22.04,26.28,51.68,29.06,60.08.5-.83.97-1.71,1.44-2.55-2.81-8.43-18.62-39.72-29.72-61.08-.23,1.17-.49,2.35-.77,3.55"/>
    </g>
    <g class="cls-25">
      <rect class="cls-9" x="14.26" y="55.25" width="96.59" height="125.39"/>
    </g>
    <g class="cls-24">
      <rect class="cls-10" x="19.37" y="205.9" width="218.25" height="134.34"/>
    </g>
    <g>
      <path class="cls-21" d="M129.65,79.83c-10.09,3.52-19.34,9.31-27.04,17.12,7.35-6.97,15.97-12.15,25.33-15.4,17.15-5.95,37.78-5.81,57.99,1.54.1-.74.19-1.48.28-2.21-19.76-6.85-39.81-6.85-56.56-1.05"/>
      <path class="cls-7" d="M106.58,155.31c-17.95,3.48-62.61,11.97-78.24,16.15-.71-21.86,3.53-42.51,12.86-61.09,5.15-10.25,11.72-19.22,19.24-26.91-8.26,8.07-15.43,17.62-20.96,28.64-9.32,18.58-13.57,39.72-12.87,61.58,16.13-4.32,61.4-12.93,79.98-16.51-.02-.46.02-1.41,0-1.85"/>
      <path class="cls-7" d="M140.81,321.68c-51.99-15.15-93.38-61.93-107.5-116.2-.69.13-1.39.27-2.06.41,13.77,54.82,55.42,102.24,107.83,117.52,23.33,6.77,45.97,6.18,65.71,0,17.03-5.34,32.48-15.04,44.97-27.91-12.18,12.02-27.01,21.09-43.25,26.19-19.74,6.19-42.41,6.77-65.7,0"/>
      <path class="cls-21" d="M28.34,171.46c15.62-4.18,32.53-8.07,50.48-11.55-.33-12.85,1.63-25.31,6.16-36.73,4.17-10.43,10.25-19.23,17.63-26.22,7.7-7.82,16.95-13.6,27.04-17.13,16.75-5.81,36.8-5.81,56.56,1.05.86-7.39,1.4-13.79,1.68-19.27-27.92-11.03-57.2-12.13-81.88-5.09-16.69,4.77-32.52,13.72-45.58,26.46-7.52,7.69-14.09,16.66-19.24,26.91-9.32,18.57-13.57,39.72-12.86,61.57"/>
      <path class="cls-7" d="M235.86,260.02c-19.48,17.79-48.25,24.11-78.13,13.09-33.63-12.45-60.04-42.35-72.21-77.26-18.49,3.13-35.97,6.38-52.21,9.63,14.12,54.27,55.51,101.05,107.5,116.2,23.3,6.77,45.96,6.19,65.7,0,16.24-5.1,31.06-14.17,43.25-26.19.77-.8,1.53-1.61,2.28-2.42-4.08-9.77-9.42-20.8-16.18-33.05"/>
    </g>
    <g class="cls-23">
      <rect class="cls-11" x="27.63" y="52.09" width="160.27" height="119.38"/>
    </g>
    <path class="cls-7" d="M127.32,118.2s24.47-19.52,55.73-6.93c1.45-13.38,4.6-43.93,4.83-48.62-16.36-6.47-33.21-9.52-49.32-9.52-11.35,0-22.35,1.52-32.55,4.43-16.7,4.76-32.52,13.72-45.58,26.46-7.52,7.69-14.09,16.66-19.24,26.91-9.32,18.58-13.57,39.72-12.86,61.58,14.58-3.9,58.15-11.69,78.5-15.55,1.09-13.16,6.19-27.66,20.49-38.76"/>
    <g class="cls-29">
      <rect class="cls-7" x="19.38" y="53.13" width="168.51" height="125.52"/>
    </g>
    <g class="cls-28">
      <rect class="cls-15" x="27.63" y="52.09" width="160.27" height="119.38"/>
    </g>
    <g class="cls-26">
      <rect class="cls-17" x="14.84" y="157.16" width="91.73" height="23.48"/>
    </g>
    <path class="cls-7" d="M220.53,228.57c-8.36,9.51-24.02,21.04-48.6,15.9,0,0-37.45-3.08-59.89-55.37-22.4,3.92-66.75,12.63-81.09,15.49,14.12,54.27,57.87,100,109.86,115.14,23.3,6.77,45.96,6.2,65.7,0,16.24-5.1,31.99-12.12,44.17-24.14.76-.8,1.53-1.61,2.27-2.42-3.34-8.02-22.31-45.42-32.41-64.61"/>
    <g class="cls-27">
      <rect class="cls-7" x="29.36" y="167.57" width="222.67" height="158.94"/>
    </g>
    <g class="cls-30">
      <rect class="cls-12" x="33.31" y="191.04" width="218.72" height="137.41"/>
    </g>
    <g class="cls-32">
      <rect class="cls-16" x="210.45" y="72.9" width="77.18" height="199.22"/>
    </g>
    <g class="cls-33">
      <rect class="cls-14" x="213.48" y="212.33" width="69.63" height="69.01" transform="translate(-101.75 253.66) rotate(-45.95)"/>
    </g>
    <g class="cls-31">
      <rect class="cls-13" x="176.15" y="128.09" width="96.13" height="95.11" transform="translate(-57.93 214.64) rotate(-45.94)"/>
    </g>
    <path class="cls-8" d="M220.53,228.57l-6.59,1.93s-4.67,8.21-23.25,14.75c0,0,17.04-.68,29.84-16.68"/>
  </g>
  <g>
    <path class="cls-20" d="M327.56,76.04c-1-1.35-2.24-2.36-3.71-3.03-1.47-.67-3.01-1.01-4.61-1.01-1.85,0-3.55.38-5.1,1.13-1.55.75-2.89,1.76-4.02,3.03-1.13,1.27-2.01,2.74-2.63,4.42-.63,1.68-.94,3.42-.94,5.24,0,1.94.31,3.75.94,5.43.62,1.68,1.49,3.13,2.61,4.37,1.11,1.24,2.44,2.21,4,2.94,1.55.72,3.27,1.08,5.14,1.08,2.04,0,3.86-.4,5.45-1.2,1.59-.8,2.99-1.95,4.18-3.46l2.96,2.49c-1.5,2-3.31,3.48-5.43,4.42-2.12.94-4.5,1.41-7.17,1.41-2.38,0-4.6-.44-6.67-1.32-2.07-.88-3.86-2.09-5.38-3.64-1.52-1.55-2.71-3.39-3.57-5.52-.86-2.13-1.29-4.46-1.29-7s.42-4.73,1.24-6.86c.83-2.13,2-3.98,3.5-5.54,1.5-1.57,3.29-2.8,5.35-3.71,2.07-.91,4.34-1.36,6.81-1.36,2.26,0,4.42.41,6.51,1.22,2.08.82,3.83,2.14,5.24,3.99l-3.43,2.49Z"/>
    <polygon class="cls-20" points="337.34 69.18 358.25 69.18 358.25 72.84 341.29 72.84 341.29 83.28 357.12 83.28 357.12 86.94 341.29 86.94 341.29 98.79 359.1 98.79 359.1 102.45 337.34 102.45 337.34 69.18"/>
    <polygon class="cls-20" points="365.21 69.18 370.18 69.18 389.45 96.81 389.54 96.81 389.54 69.18 393.49 69.18 393.49 102.45 388.51 102.45 369.24 74.82 369.15 74.82 369.15 102.45 365.21 102.45 365.21 69.18"/>
    <polygon class="cls-20" points="424.08 72.85 413.09 72.85 413.09 102.45 409.14 102.45 409.14 72.85 398.15 72.85 398.15 69.18 424.08 69.18 424.08 72.85"/>
    <path class="cls-20" d="M428.73,69.18h8.51c1.6,0,3.18.09,4.77.28,1.58.19,3,.6,4.25,1.22,1.25.63,2.27,1.54,3.05,2.75.78,1.2,1.18,2.84,1.18,4.91,0,2.44-.74,4.42-2.21,5.92-1.47,1.5-3.51,2.46-6.11,2.87l9.45,15.32h-4.84l-9.02-14.94h-5.07v14.94h-3.95v-33.27ZM432.68,83.84h3.52c1.1,0,2.23-.03,3.41-.09,1.18-.06,2.26-.27,3.24-.61.99-.35,1.8-.89,2.44-1.62.64-.74.97-1.79.97-3.17,0-1.19-.24-2.14-.71-2.87-.47-.72-1.09-1.28-1.86-1.67-.77-.39-1.63-.65-2.58-.78-.96-.13-1.92-.19-2.89-.19h-5.54v11Z"/>
    <path class="cls-20" d="M472.91,103.3c-2.54,0-4.87-.44-6.98-1.32-2.12-.88-3.94-2.09-5.49-3.64-1.55-1.55-2.76-3.4-3.62-5.55-.87-2.14-1.29-4.47-1.29-6.98s.43-4.83,1.29-6.98c.86-2.15,2.07-3.99,3.62-5.55,1.55-1.55,3.38-2.76,5.49-3.64,2.12-.88,4.44-1.32,6.98-1.32s4.86.44,6.98,1.32c2.11.88,3.94,2.09,5.5,3.64,1.55,1.55,2.76,3.4,3.62,5.55.86,2.14,1.29,4.47,1.29,6.98s-.43,4.83-1.29,6.98c-.86,2.15-2.07,3.99-3.62,5.55-1.55,1.55-3.39,2.76-5.5,3.64-2.12.88-4.44,1.32-6.98,1.32M472.91,99.63c1.94,0,3.72-.36,5.33-1.08,1.61-.72,3-1.71,4.16-2.96,1.16-1.25,2.06-2.72,2.7-4.39.64-1.67.96-3.47.96-5.38s-.32-3.7-.96-5.38c-.64-1.68-1.54-3.14-2.7-4.39-1.16-1.25-2.55-2.24-4.16-2.96-1.61-.72-3.39-1.08-5.33-1.08s-3.72.36-5.33,1.08c-1.61.72-3,1.71-4.16,2.96-1.16,1.25-2.06,2.72-2.7,4.39-.64,1.68-.96,3.47-.96,5.38s.32,3.71.96,5.38c.64,1.68,1.54,3.14,2.7,4.39,1.16,1.25,2.55,2.24,4.16,2.96,1.61.72,3.39,1.08,5.33,1.08"/>
  </g>
  <path class="cls-20" d="M383.01,133.5h25.07c5.46,0,9.55,1.24,12.27,3.71,2.72,2.48,4.08,6,4.08,10.56s-1.48,8.36-4.44,11c-2.96,2.64-7.49,3.96-13.56,3.96h-8.26v17.25h-15.15v-46.49ZM398.16,153.32h3.69c2.91,0,4.95-.48,6.13-1.44,1.17-.97,1.76-2.19,1.76-3.7s-.51-2.7-1.53-3.71c-1.02-1.02-2.94-1.52-5.76-1.52h-4.29v10.37Z"/>
  <path class="cls-20" d="M449.19,133.5h19.49l7.51,28.29,7.47-28.29h19.48v46.49h-12.14v-35.46l-9.35,35.46h-10.99l-9.34-35.46v35.46h-12.14v-46.49Z"/>
  <path class="cls-20" d="M509.17,133.5h40.18v9.93h-25.15v7.39h23.33v9.48h-23.33v9.16h25.88v10.53h-40.91v-46.49Z"/>
  <path class="cls-20" d="M553.34,164.61l14.2-.86c.31,2.22.93,3.92,1.88,5.08,1.53,1.88,3.73,2.82,6.59,2.82,2.13,0,3.77-.48,4.93-1.44,1.15-.96,1.73-2.08,1.73-3.35s-.55-2.28-1.65-3.24c-1.1-.95-3.65-1.85-7.64-2.7-6.54-1.42-11.21-3.3-14-5.64-2.81-2.35-4.22-5.34-4.22-8.98,0-2.39.72-4.65,2.16-6.77,1.44-2.13,3.6-3.8,6.49-5.01,2.89-1.21,6.85-1.82,11.88-1.82,6.17,0,10.88,1.1,14.12,3.31,3.24,2.21,5.17,5.73,5.78,10.55l-14.06.79c-.38-2.1-1.16-3.61-2.36-4.57-1.19-.95-2.85-1.43-4.95-1.43-1.74,0-3.04.36-3.92,1.07-.88.71-1.32,1.57-1.32,2.58,0,.74.36,1.41,1.09,2,.7.61,2.37,1.19,5.01,1.71,6.52,1.35,11.2,2.72,14.02,4.11,2.82,1.38,4.88,3.1,6.16,5.15,1.29,2.05,1.93,4.34,1.93,6.88,0,2.98-.85,5.73-2.57,8.24-1.71,2.52-4.11,4.43-7.19,5.73-3.07,1.3-6.95,1.95-11.63,1.95-8.22,0-13.9-1.52-17.07-4.57-3.16-3.04-4.95-6.91-5.37-11.61Z"/>
  <path class="cls-6" d="M419.69,114.89s7.64,3.13,8.94,16.9c1.31,13.76,1.91,18.71,1.91,18.71,0,0-7.18-15.57-14.02-20.8-1.96-1.5-12.23-6.7-9.87-12.02,2.35-5.29,10.06-4.35,13.04-2.79Z"/>
  <path class="cls-20" d="M443.36,126.31c0,3.61-3.13,6.53-6.99,6.53s-6.99-2.93-6.99-6.53,3.13-6.53,6.99-6.53,6.99,2.92,6.99,6.53Z"/>
  <path class="cls-3" d="M432.74,153.4s1.3,26.31,5.4,32.93c4.1,6.62,7.64,9.23,7.08,12.89-.56,3.66-5,7.3-8.49,8.11-3.81.89-7.03.3-8.84-1.49-3.17-3.13-4.29-7.84-3.17-17.6,1.12-9.76,8.01-34.84,8.01-34.84Z"/>
  <path class="cls-19" d="M436.39,151.88s7.17-8.9,12.56-13.75c7.12-6.4,8.19-6.52,13.41-8.78,5.22-2.27,9.69-4.35,7.64-9.58-2.05-5.23-3.93-6.69-7.02-7.45-3.32-.81-6.12.63-9.38,4.48-10.43,12.37-17.21,35.07-17.21,35.07Z"/>
  <path class="cls-20" d="M303.77,133.38h19.49l7.52,28.29,7.47-28.29h19.48v46.49h-12.14v-35.46l-9.35,35.46h-10.99l-9.34-35.46v35.46h-12.14v-46.49Z"/>
  <rect class="cls-20" x="361.91" y="133.38" width="16.58" height="47.19"/>
  <g>
    <rect class="cls-20" x="304.35" y="187.44" width="114.45" height="1.99"/>
    <rect class="cls-20" x="446.6" y="187.44" width="150.55" height="1.99"/>
    <g>
      <path class="cls-20" d="M304.83,198.97l-.33,1.71h-1.41l1.62-7.47h1.74l1.45,7.47h-1.41l-.32-1.71h-1.34ZM306.04,197.84l-.24-1.56c-.08-.45-.18-1.21-.24-1.7h-.03c-.08.5-.19,1.26-.27,1.7l-.27,1.56h1.06Z"/>
      <path class="cls-20" d="M310.08,193.32c.41-.09.96-.14,1.52-.14.86,0,1.55.12,2.03.58.44.39.64,1.01.64,1.64,0,.81-.25,1.39-.63,1.8-.47.5-1.21.72-1.82.72-.1,0-.19,0-.29-.01v2.78h-1.45v-7.35ZM311.53,196.72c.08.01.15.01.24.01.73,0,1.05-.52,1.05-1.22,0-.65-.27-1.16-.94-1.16-.14,0-.27.02-.36.05v2.32Z"/>
      <path class="cls-20" d="M320.91,196.81c0,2.81-.99,3.95-2.41,3.95-1.7,0-2.36-1.8-2.36-3.84s.81-3.8,2.47-3.8c1.79,0,2.3,1.98,2.3,3.69ZM317.64,196.95c0,1.69.32,2.56.91,2.56.62,0,.85-1.11.85-2.63,0-1.31-.2-2.49-.86-2.49-.58,0-.9.95-.9,2.56Z"/>
      <path class="cls-20" d="M324.02,200.68v-2.86l-1.64-4.61h1.55l.5,1.78c.14.48.29,1.03.4,1.58h.02c.09-.54.21-1.09.34-1.62l.45-1.75h1.51l-1.68,4.55v2.91h-1.45Z"/>
      <path class="cls-20" d="M329.85,198.97l-.33,1.71h-1.41l1.62-7.47h1.74l1.45,7.47h-1.41l-.32-1.71h-1.34ZM331.05,197.84l-.25-1.56c-.08-.45-.18-1.21-.24-1.7h-.03c-.08.5-.19,1.26-.27,1.7l-.28,1.56h1.06Z"/>
      <path class="cls-20" d="M335.1,200.68v-7.47h1.33l1.15,2.93c.23.58.59,1.54.8,2.18h.02c-.04-.79-.14-2.08-.14-3.46v-1.65h1.27v7.47h-1.33l-1.14-2.84c-.25-.63-.59-1.58-.76-2.25h-.02c.04.75.1,1.91.1,3.41v1.67h-1.27Z"/>
      <path class="cls-20" d="M342.17,193.32c.36-.09.9-.14,1.47-.14.94,0,1.6.22,2.07.66.64.58.98,1.56.98,3.01s-.39,2.58-1.04,3.16c-.51.48-1.24.72-2.27.72-.47,0-.92-.04-1.21-.09v-7.32ZM343.62,199.53c.08.02.18.02.25.02.7,0,1.31-.69,1.31-2.75,0-1.53-.4-2.46-1.27-2.46-.1,0-.2,0-.29.03v5.15Z"/>
      <path class="cls-20" d="M353.38,196.81c0,2.81-1,3.95-2.42,3.95-1.7,0-2.36-1.8-2.36-3.84s.81-3.8,2.47-3.8c1.8,0,2.31,1.98,2.31,3.69ZM350.11,196.95c0,1.69.32,2.56.91,2.56.62,0,.85-1.11.85-2.63,0-1.31-.2-2.49-.86-2.49-.58,0-.9.95-.9,2.56Z"/>
      <path class="cls-20" d="M359.97,198.97l-.33,1.71h-1.41l1.62-7.47h1.74l1.45,7.47h-1.41l-.32-1.71h-1.34ZM361.17,197.84l-.24-1.56c-.08-.45-.18-1.21-.24-1.7h-.03c-.08.5-.19,1.26-.26,1.7l-.28,1.56h1.06Z"/>
      <path class="cls-20" d="M368.34,193.21h1.45v6.24h1.91v1.23h-3.36v-7.47Z"/>
      <path class="cls-20" d="M375.18,198.97l-.33,1.71h-1.41l1.62-7.47h1.74l1.45,7.47h-1.41l-.32-1.71h-1.34ZM376.39,197.84l-.24-1.56c-.08-.45-.18-1.21-.24-1.7h-.03c-.08.5-.19,1.26-.27,1.7l-.28,1.56h1.06Z"/>
      <path class="cls-20" d="M388.12,198.07c-.04-.71-.09-1.67-.08-2.47h-.02c-.13.8-.33,1.72-.48,2.29l-.65,2.67h-1.02l-.62-2.62c-.14-.6-.34-1.53-.47-2.34h-.02c-.02.81-.08,1.75-.11,2.49l-.13,2.59h-1.24l.53-7.47h1.54l.6,2.7c.2.94.39,1.77.52,2.61h.03c.11-.83.28-1.67.47-2.61l.6-2.7h1.53l.46,7.47h-1.3l-.13-2.61Z"/>
      <path class="cls-20" d="M393.42,193.21v7.47h-1.45v-7.47h1.45Z"/>
      <path class="cls-20" d="M399.65,200.57c-.21.1-.62.18-1.12.18-1.92,0-2.82-1.56-2.82-3.69,0-2.81,1.56-3.91,3.01-3.91.51,0,.86.1,1.01.2l-.24,1.22c-.17-.08-.36-.14-.68-.14-.82,0-1.56.71-1.56,2.56s.67,2.48,1.56,2.48c.24,0,.52-.06.7-.11l.14,1.22Z"/>
      <path class="cls-20" d="M401.81,193.32c.45-.09,1.03-.14,1.58-.14.8,0,1.52.12,1.99.55.46.41.6.91.6,1.55,0,.8-.4,1.52-1.15,1.86v.02c.51.21.76.67.91,1.48.14.83.34,1.75.48,2.03h-1.52c-.1-.21-.27-.96-.37-1.79-.13-.92-.36-1.19-.84-1.19h-.22v2.98h-1.45v-7.35ZM403.26,196.58h.26c.63,0,.99-.51.99-1.16s-.26-1.09-.9-1.11c-.13,0-.28.01-.35.04v2.23Z"/>
      <path class="cls-20" d="M412.79,196.81c0,2.81-1,3.95-2.41,3.95-1.7,0-2.36-1.8-2.36-3.84s.81-3.8,2.47-3.8c1.79,0,2.3,1.98,2.3,3.69ZM409.52,196.95c0,1.69.32,2.56.91,2.56.62,0,.85-1.11.85-2.63,0-1.31-.2-2.49-.86-2.49-.58,0-.9.95-.9,2.56Z"/>
      <path class="cls-20" d="M414.13,202.06c.32-.92.62-2.07.74-2.95l1.47-.11c-.33,1-.8,2.16-1.29,2.96l-.93.1Z"/>
      <path class="cls-20" d="M447.39,193.32c.41-.09.97-.14,1.52-.14.86,0,1.55.12,2.03.58.44.39.64,1.01.64,1.64,0,.81-.24,1.39-.63,1.8-.47.5-1.21.72-1.82.72-.1,0-.19,0-.29-.01v2.78h-1.45v-7.35ZM448.84,196.72c.08.01.16.01.25.01.73,0,1.05-.52,1.05-1.22,0-.65-.27-1.16-.94-1.16-.13,0-.27.02-.36.05v2.32Z"/>
      <path class="cls-20" d="M456.96,197.4h-1.7v2.02h1.92v1.26h-3.37v-7.47h3.25v1.26h-1.8v1.72h1.7v1.21Z"/>
      <path class="cls-20" d="M463.78,201.9c-.63-.27-1.35-.64-1.92-.97-.17-.09-.29-.15-.34-.15-1.46,0-2.35-1.41-2.35-3.84,0-2,.81-3.8,2.48-3.8,1.81,0,2.29,1.98,2.29,3.69,0,1.85-.41,2.99-1.12,3.38v.06c.48.21,1,.37,1.46.55l-.51,1.1ZM462.44,196.88c0-1.39-.21-2.49-.85-2.49-.61,0-.92,1.12-.91,2.53-.02,1.52.25,2.59.92,2.59.59,0,.84-1.07.84-2.63Z"/>
      <path class="cls-20" d="M467.63,193.21v4.85c0,1.1.32,1.43.71,1.43.42,0,.72-.3.72-1.43v-4.85h1.45v4.6c0,1.92-.73,2.96-2.16,2.96-1.56,0-2.17-1.08-2.17-2.95v-4.61h1.45Z"/>
      <path class="cls-20" d="M476.27,197.4h-1.7v2.02h1.92v1.26h-3.37v-7.47h3.25v1.26h-1.8v1.72h1.7v1.21Z"/>
      <path class="cls-20" d="M478.85,200.68v-7.47h1.33l1.15,2.93c.23.58.59,1.54.8,2.18h.02c-.04-.79-.14-2.08-.14-3.46v-1.65h1.27v7.47h-1.33l-1.14-2.84c-.25-.63-.59-1.58-.76-2.25h-.02c.04.75.1,1.91.1,3.41v1.67h-1.27ZM479.78,192.73c-.02-.82.28-1.28.73-1.28.25,0,.43.09.59.19.16.1.29.19.41.19.17,0,.22-.1.26-.42h.65c.02.93-.26,1.27-.77,1.27-.24,0-.44-.08-.6-.18-.16-.09-.26-.16-.39-.16-.12,0-.21.13-.23.39h-.65Z"/>
      <path class="cls-20" d="M487.11,198.97l-.33,1.71h-1.41l1.62-7.47h1.74l1.45,7.47h-1.41l-.32-1.71h-1.34ZM488.32,197.84l-.24-1.56c-.08-.45-.18-1.21-.24-1.7h-.03c-.08.5-.19,1.26-.27,1.7l-.28,1.56h1.06Z"/>
      <path class="cls-20" d="M496.19,200.68v-2.86l-1.64-4.61h1.55l.5,1.78c.14.48.29,1.03.4,1.58h.02c.09-.54.21-1.09.34-1.62l.44-1.75h1.51l-1.67,4.55v2.91h-1.45Z"/>
      <path class="cls-20" d="M508.86,198.07c-.04-.71-.09-1.67-.08-2.47h-.02c-.13.8-.33,1.72-.48,2.29l-.65,2.67h-1.02l-.62-2.62c-.15-.6-.35-1.53-.47-2.34h-.02c-.02.81-.08,1.75-.11,2.49l-.13,2.59h-1.24l.53-7.47h1.54l.6,2.7c.2.94.39,1.77.52,2.61h.03c.11-.83.28-1.67.47-2.61l.6-2.7h1.53l.46,7.47h-1.3l-.13-2.61Z"/>
      <path class="cls-20" d="M515.86,197.4h-1.69v2.02h1.92v1.26h-3.37v-7.47h3.25v1.26h-1.8v1.72h1.69v1.21Z"/>
      <path class="cls-20" d="M518.44,193.32c.37-.09.9-.14,1.47-.14.94,0,1.6.22,2.07.66.64.58.98,1.56.98,3.01s-.39,2.58-1.04,3.16c-.51.48-1.24.72-2.27.72-.47,0-.92-.04-1.21-.09v-7.32ZM519.89,199.53c.08.02.18.02.25.02.7,0,1.31-.69,1.31-2.75,0-1.53-.4-2.46-1.27-2.46-.1,0-.2,0-.29.03v5.15Z"/>
      <path class="cls-20" d="M526.69,193.21v7.47h-1.45v-7.47h1.45Z"/>
      <path class="cls-20" d="M530.53,198.97l-.33,1.71h-1.41l1.62-7.47h1.74l1.45,7.47h-1.41l-.32-1.71h-1.34ZM531.74,197.84l-.24-1.56c-.08-.45-.18-1.21-.25-1.7h-.03c-.08.5-.19,1.26-.27,1.7l-.28,1.56h1.06Z"/>
      <path class="cls-20" d="M535.78,200.68v-7.47h1.33l1.15,2.93c.23.58.59,1.54.8,2.18h.02c-.04-.79-.15-2.08-.15-3.46v-1.65h1.27v7.47h-1.33l-1.14-2.84c-.26-.63-.59-1.58-.76-2.25h-.02c.05.75.1,1.91.1,3.41v1.67h-1.27Z"/>
      <path class="cls-20" d="M544.04,198.97l-.33,1.71h-1.41l1.62-7.47h1.74l1.45,7.47h-1.41l-.32-1.71h-1.34ZM545.25,197.84l-.24-1.56c-.08-.45-.18-1.21-.25-1.7h-.03c-.08.5-.19,1.26-.27,1.7l-.28,1.56h1.06Z"/>
      <path class="cls-20" d="M555.56,197.4h-1.7v2.02h1.92v1.26h-3.37v-7.47h3.24v1.26h-1.8v1.72h1.7v1.21Z"/>
      <path class="cls-20" d="M562.7,198.07c-.04-.71-.09-1.67-.08-2.47h-.02c-.13.8-.33,1.72-.48,2.29l-.65,2.67h-1.02l-.62-2.62c-.15-.6-.34-1.53-.47-2.34h-.02c-.02.81-.08,1.75-.11,2.49l-.13,2.59h-1.24l.53-7.47h1.54l.6,2.7c.2.94.39,1.77.52,2.61h.03c.11-.83.28-1.67.47-2.61l.6-2.7h1.53l.45,7.47h-1.3l-.13-2.61Z"/>
      <path class="cls-20" d="M566.56,193.32c.41-.09.96-.14,1.52-.14.87,0,1.55.12,2.03.58.44.39.64,1.01.64,1.64,0,.81-.24,1.39-.63,1.8-.47.5-1.21.72-1.82.72-.1,0-.19,0-.29-.01v2.78h-1.45v-7.35ZM568,196.72c.08.01.16.01.24.01.73,0,1.05-.52,1.05-1.22,0-.65-.26-1.16-.94-1.16-.13,0-.27.02-.36.05v2.32Z"/>
      <path class="cls-20" d="M572.98,193.32c.45-.09,1.03-.14,1.58-.14.8,0,1.52.12,1.99.55.46.41.6.91.6,1.55,0,.8-.39,1.52-1.15,1.86v.02c.51.21.76.67.91,1.48.14.83.34,1.75.48,2.03h-1.52c-.1-.21-.27-.96-.38-1.79-.13-.92-.37-1.19-.84-1.19h-.22v2.98h-1.45v-7.35ZM574.43,196.58h.27c.63,0,.99-.51.99-1.16s-.25-1.09-.9-1.11c-.13,0-.28.01-.36.04v2.23Z"/>
      <path class="cls-20" d="M582.69,197.4h-1.7v2.02h1.92v1.26h-3.37v-7.47h3.25v1.26h-1.79v1.72h1.7v1.21Z"/>
      <path class="cls-20" d="M585.1,199.2c.3.17.82.29,1.23.29.68,0,1.02-.36,1.02-.84,0-.54-.33-.81-.97-1.22-1.02-.62-1.41-1.41-1.41-2.08,0-1.19.8-2.19,2.35-2.19.5,0,.96.13,1.17.27l-.23,1.25c-.21-.13-.53-.26-.94-.26-.62,0-.92.38-.92.78,0,.44.22.68,1.02,1.16,1,.6,1.35,1.35,1.35,2.14,0,1.36-1.01,2.26-2.46,2.26-.6,0-1.18-.16-1.43-.3l.21-1.25Z"/>
      <path class="cls-20" d="M592.18,198.97l-.33,1.71h-1.41l1.61-7.47h1.74l1.45,7.47h-1.41l-.32-1.71h-1.34ZM593.39,197.84l-.25-1.56c-.08-.45-.18-1.21-.24-1.7h-.03c-.08.5-.19,1.26-.27,1.7l-.28,1.56h1.06Z"/>
    </g>
  </g>
  <path class="cls-18" d="M353.8,233.61v43.26c0,14.82-8.52,22.23-25.56,22.23s-25.49-7.41-25.49-22.23v-43.26h19.45v43.81c0,5.67.84,9.54,2.53,11.62,1.68,2.08,4.8,3.12,9.35,3.12,8.81,0,13.21-5.11,13.21-15.3v-43.26h6.52Z"/>
  <polygon class="cls-18" points="411 233.61 411 298.07 396.12 298.07 368.14 257.27 368.14 298.07 361.62 298.07 361.62 233.61 373.93 233.61 404.47 277.67 404.47 233.61 411 233.61"/>
  <path class="cls-18" d="M420.59,298.07v-64.46h28.91c16.4,0,24.59,6.32,24.59,18.94s-9.12,19.13-27.34,19.13h-6.73v26.4h-19.44ZM440.02,265.72h4.38c7.07,0,10.6-4.5,10.6-13.51,0-8.43-3.53-12.65-10.6-12.65h-4.38v26.16Z"/>
  <path class="cls-18" d="M597.16,233.61v43.26c0,14.82-8.52,22.23-25.58,22.23s-25.48-7.41-25.48-22.23v-43.26h19.44v43.81c0,5.67.85,9.54,2.53,11.62,1.68,2.08,4.8,3.12,9.36,3.12,8.8,0,13.2-5.11,13.2-15.3v-43.26h6.53Z"/>
  <polygon class="cls-18" points="498.85 266.01 498.85 298.07 479.41 298.07 479.41 233.61 498.85 233.61 498.85 259.54 514.7 259.54 514.7 233.61 534.14 233.61 534.14 298.07 514.7 298.07 514.7 266.01 498.85 266.01"/>
</svg>